<!--?xml version="1.0" standalone="no"?-->
              <svg id="sw-js-blob-svg" viewBox="0 0 100 100" xmlns="http://www.w3.org/2000/svg" version="1.1">
                    <defs> 
                        <linearGradient id="sw-gradient" x1="0" x2="1" y1="1" y2="0">
                            <stop id="stop1" stop-color="rgba(110, 118, 229, 1)" offset="0%"></stop>
                            <stop id="stop2" stop-color="rgba(0, 195.936, 255, 1)" offset="100%"></stop>
                        </linearGradient>
                    </defs>
                <path fill="url(#sw-gradient)" d="M25.5,-30.4C33,-24.2,39,-16,41.5,-6.6C44,2.8,43.1,13.6,38.4,22.5C33.7,31.5,25.1,38.5,15.8,40.9C6.4,43.2,-3.8,40.7,-12.8,36.8C-21.9,32.8,-29.8,27.3,-35.6,19.5C-41.3,11.7,-44.9,1.6,-43.2,-7.5C-41.5,-16.6,-34.4,-24.6,-26.3,-30.7C-18.2,-36.8,-9.1,-41,0,-41C9,-40.9,18.1,-36.6,25.5,-30.4Z" width="100%" height="100%" transform="translate(50 50)" stroke-width="0" style="transition: 0.3s;" stroke="url(#sw-gradient)"></path>
              </svg>